<svg width="16" height="15" viewBox="0 0 16 15" fill="none" xmlns="http://www.w3.org/2000/svg">
<path d="M7.10337 1.48313C7.47021 0.739966 8.52995 0.739966 8.89679 1.48313L10.3426 4.41226C10.4882 4.70711 10.7694 4.91157 11.0947 4.95912L14.3296 5.43195C15.1495 5.5518 15.4763 6.55964 14.8827 7.1378L12.5435 9.41618C12.3077 9.64592 12.2 9.97705 12.2557 10.3016L12.8075 13.5191C12.9476 14.3361 12.0901 14.9591 11.3564 14.5733L8.46553 13.0529C8.17415 12.8997 7.82601 12.8997 7.53463 13.0529L4.64371 14.5733C3.91008 14.9591 3.05254 14.3361 3.19265 13.5191L3.7445 10.3016C3.80016 9.97705 3.6925 9.64592 3.45663 9.41618L1.11743 7.1378C0.523835 6.55964 0.850617 5.5518 1.67053 5.43195L4.90545 4.95912C5.2308 4.91157 5.51199 4.70711 5.65753 4.41226L7.10337 1.48313Z" fill="#FFB800"/>
</svg>
