<svg width="16" height="13" viewBox="0 0 16 13" fill="none" xmlns="http://www.w3.org/2000/svg">
<path d="M15.5 1.43025C14.9378 1.67578 14.3423 1.83678 13.733 1.908C14.3726 1.53243 14.8535 0.93683 15.086 0.232501C14.48 0.585247 13.8191 0.833703 13.1307 0.967501C12.8409 0.663905 12.4923 0.422541 12.1061 0.258135C11.7199 0.0937278 11.3042 0.00972496 10.8845 0.0112509C9.185 0.0112509 7.80725 1.36875 7.80725 3.04125C7.80725 3.27825 7.83425 3.51 7.88675 3.73125C6.66768 3.67327 5.47409 3.36181 4.38213 2.81673C3.29016 2.27165 2.32382 1.50494 1.54475 0.565501C1.27162 1.0263 1.12806 1.55234 1.12925 2.088C1.12925 3.14025 1.67225 4.068 2.49725 4.61025C2.00936 4.5945 1.53202 4.46424 1.10375 4.23V4.2675C1.10375 5.736 2.165 6.96075 3.57125 7.23975C3.30696 7.30988 3.03469 7.34542 2.76125 7.3455C2.5625 7.3455 2.36975 7.32675 2.1815 7.28925C2.38256 7.89519 2.76733 8.42349 3.28236 8.80076C3.7974 9.17803 4.41713 9.38555 5.0555 9.3945C3.96055 10.2379 2.61636 10.6935 1.23425 10.6898C0.98525 10.6898 0.74075 10.6748 0.5 10.6478C1.91094 11.5408 3.54694 12.0137 5.21675 12.0113C10.877 12.0113 13.9715 7.3935 13.9715 3.38925L13.961 2.997C14.5646 2.57225 15.0861 2.04139 15.5 1.43025Z" fill="white"/>
</svg>
