<svg width="16" height="12" viewBox="0 0 16 12" fill="none" xmlns="http://www.w3.org/2000/svg">
<path d="M12.359 0.762957H3.60875C1.89125 0.762957 0.5 2.13921 0.5 3.83721V8.16321C0.5 9.86121 1.892 11.2382 3.60875 11.2382H12.359C14.0765 11.2382 15.4678 9.86121 15.4678 8.16321V3.83721C15.4678 2.13921 14.0758 0.762207 12.359 0.762207V0.762957ZM10.2568 6.21021L6.164 8.14146C6.13904 8.15348 6.11144 8.15899 6.08377 8.15747C6.05611 8.15596 6.02928 8.14747 6.00577 8.1328C5.98227 8.11813 5.96286 8.09775 5.94935 8.07356C5.93584 8.04938 5.92867 8.02216 5.9285 7.99446V4.01271C5.9285 3.89196 6.05825 3.81321 6.167 3.86796L10.2605 5.91921C10.2878 5.9328 10.3106 5.95382 10.3265 5.97983C10.3424 6.00584 10.3506 6.03579 10.3502 6.06626C10.3498 6.09672 10.3408 6.12646 10.3243 6.15205C10.3078 6.17765 10.2844 6.19806 10.2568 6.21096V6.21021Z" fill="white"/>
</svg>
